<svg aria-hidden="true" style="position:absolute;width:0;height:0;overflow:hidden" xmlns="http://www.w3.org/2000/svg"><defs><symbol id="icon-2" viewBox="0 0 32 32"><path d="M10.5 16zm16.7-2.6zM21.6 12.2C21.3 7.7 19.5 3.4 16 0a19.5 19.5 0 0 0-5.7 12.2c2 1.1 4 2.5 5.6 4.2a23 23 0 0 1 5.6-4.2zm-10.4 4.2-.7-.4.7.4zm10.3-.4-.7.5.7-.5zM16 21.5a19.1 19.1 0 0 0-16-8.7A19.5 19.5 0 0 0 16 32l3.2-.8A19.5 19.5 0 0 0 32 12.8c-6.7 0-12.6 3.5-16 8.7z"/></symbol><symbol id="icon-1" viewBox="0 0 32 32"><path d="M3.2 6.4H0v22.4C0 30.6 1.4 32 3.2 32h22.4v-3.2H3.2V6.4zM28.8 0H9.6a3.2 3.2 0 0 0-3.2 3.2v19.2c0 1.8 1.4 3.2 3.2 3.2h19.2c1.8 0 3.2-1.4 3.2-3.2V3.2C32 1.4 30.6 0 28.8 0zm-1.6 14.4h-16v-3.2h16v3.2zm-6.4 6.4h-9.6v-3.2h9.6v3.2zM27.2 8h-16V4.8h16V8z"/></symbol><symbol id="icon" viewBox="0 0 30 32"><path d="M3 13.7v10.7h4.6V13.7H3zm9.2 0v10.7h4.6V13.7h-4.6zM0 32h29v-4.6H0V32zm21.3-18.3v10.7H26V13.7h-4.6zM14.5 0 0 7.6v3h29v-3L14.5 0z"/></symbol></defs></svg>